<?xml version="1.0" encoding="UTF-8" standalone="no"?>
<!-- Created with Inkscape (http://www.inkscape.org/) -->

<svg
   xmlns:dc="http://purl.org/dc/elements/1.1/"
   xmlns:cc="http://creativecommons.org/ns#"
   xmlns:rdf="http://www.w3.org/1999/02/22-rdf-syntax-ns#"
   xmlns:svg="http://www.w3.org/2000/svg"
   xmlns="http://www.w3.org/2000/svg"
   xmlns:sodipodi="http://sodipodi.sourceforge.net/DTD/sodipodi-0.dtd"
   xmlns:inkscape="http://www.inkscape.org/namespaces/inkscape"
   width="145mm"
   height="145mm"
   viewBox="0 0 145 145"
   version="1.1"
   id="svg8"
   inkscape:version="0.92.3 (2405546, 2018-03-11)"
   sodipodi:docname="monkey.svg">
  <defs
     id="defs2" />
  <sodipodi:namedview
     id="base"
     pagecolor="#ffffff"
     bordercolor="#666666"
     borderopacity="1.0"
     inkscape:pageopacity="0.0"
     inkscape:pageshadow="2"
     inkscape:zoom="1.979899"
     inkscape:cx="258.20031"
     inkscape:cy="142.08815"
     inkscape:document-units="mm"
     inkscape:current-layer="layer1"
     showgrid="false"
     inkscape:measure-start="0,0"
     inkscape:measure-end="0,0"
     inkscape:window-width="3840"
     inkscape:window-height="2066"
     inkscape:window-x="2869"
     inkscape:window-y="-11"
     inkscape:window-maximized="1" />
  <metadata
     id="metadata5">
    <rdf:RDF>
      <cc:Work
         rdf:about="">
        <dc:format>image/svg+xml</dc:format>
        <dc:type
           rdf:resource="http://purl.org/dc/dcmitype/StillImage" />
        <dc:title></dc:title>
      </cc:Work>
    </rdf:RDF>
  </metadata>
  <g
     inkscape:label="Layer 1"
     inkscape:groupmode="layer"
     id="layer1"
     transform="translate(0,-152)">
    <path
       style="opacity:1;fill:none;fill-opacity:1;stroke:#FFFFFF;stroke-width:5;stroke-linecap:round;stroke-miterlimit:4;stroke-dasharray:none;stroke-opacity:1"
       d="m 105.85982,190.13541 c 10.30448,9.20872 16.79094,22.60089 16.79094,37.50805 0,21.58828 -13.60362,39.99926 -32.706297,47.12841 m -35.283671,-0.0456 c -19.038663,-7.16189 -32.584459,-25.54046 -32.584461,-47.08281 -2e-6,-27.77286 22.51435,-50.28722 50.287214,-50.28722 6.640826,0 12.980999,1.28725 18.784611,3.62584"
       id="path826-8"
       inkscape:connector-curvature="0"
       sodipodi:nodetypes="csccssc" />
    <path
       style="opacity:1;fill:none;fill-opacity:1;stroke:#FFFFFF;stroke-width:5;stroke-miterlimit:4;stroke-dasharray:none;stroke-opacity:1"
       d="m 119.46242,211.01218 c 2.11914,-1.1791 4.55939,-1.85077 7.15652,-1.85077 8.14089,0 14.74039,6.59949 14.74038,14.74038 0,8.14089 -6.59949,14.74037 -14.74038,14.74037 -1.89593,0 -3.70825,-0.35794 -5.37309,-1.00993"
       id="path826-8-6"
       inkscape:connector-curvature="0"
       sodipodi:nodetypes="csssc" />
    <path
       style="opacity:1;fill:none;fill-opacity:1;stroke:#FFFFFF;stroke-width:5;stroke-miterlimit:4;stroke-dasharray:none;stroke-opacity:1"
       d="m 122.53591,219.97893 c 1.06862,-1.14681 2.59229,-1.86399 4.28347,-1.86399 3.23289,-1e-5 5.85368,2.62078 5.85367,5.85367 0,3.23289 -2.62078,5.85367 -5.85367,5.85366 -1.51948,0 -2.90374,-0.57895 -3.94422,-1.52828"
       id="path826-8-6-5"
       inkscape:connector-curvature="0"
       sodipodi:nodetypes="ccccc" />
    <path
       style="opacity:1;fill:none;fill-opacity:0.23152711;stroke:#FFFFFF;stroke-width:5;stroke-linecap:round;stroke-linejoin:round;stroke-miterlimit:4;stroke-dasharray:none;stroke-opacity:1"
       d="m 90.20328,206.79665 a 22.651091,22.651091 0 0 0 -17.720366,8.57984 22.651091,22.651091 0 0 0 -17.69246,-8.51317 22.651091,22.651091 0 0 0 -22.65133,22.65133 22.651091,22.651091 0 0 0 19.315617,22.37538 22.651091,22.651091 0 0 0 -1.74253,8.69456 22.651091,22.651091 0 0 0 22.651331,22.65081 22.651091,22.651091 0 0 0 22.651331,-22.65081 22.651091,22.651091 0 0 0 -1.767851,-8.71782 22.651091,22.651091 0 0 0 19.607588,-22.4193 22.651091,22.651091 0 0 0 -22.65133,-22.65082 z"
       id="path1009"
       inkscape:connector-curvature="0" />
    <path
       style="opacity:1;fill:none;fill-opacity:1;stroke:#FFFFFF;stroke-width:5;stroke-miterlimit:4;stroke-dasharray:none;stroke-opacity:1"
       d="m 23.299773,237.32633 c -1.778437,0.76094 -3.736835,1.18219 -5.793623,1.18219 -8.1408818,0 -14.7403711,-6.59949 -14.74037,-14.74037 -6.6e-6,-8.14089 6.5994843,-14.74038 14.74037,-14.74038 3.017541,0 5.823306,0.90672 8.159704,2.46256"
       id="path826-8-6-54"
       inkscape:connector-curvature="0"
       sodipodi:nodetypes="ccscc" />
    <path
       style="opacity:1;fill:none;fill-opacity:1;stroke:#FFFFFF;stroke-width:5;stroke-miterlimit:4;stroke-dasharray:none;stroke-opacity:1"
       d="m 22.101181,227.70199 c -1.072709,1.2181 -2.643899,1.98664 -4.394591,1.98664 -3.232887,0 -5.853659,-2.62077 -5.85366,-5.85366 -5e-6,-3.23289 2.620769,-5.85367 5.85366,-5.85367 2.241112,0 4.188068,1.25943 5.171718,3.10914"
       id="path826-8-6-5-9"
       inkscape:connector-curvature="0"
       sodipodi:nodetypes="ccccc" />
    <path
       style="fill:none;stroke:#FFFFFF;stroke-width:5;stroke-linecap:round;stroke-linejoin:round;stroke-miterlimit:4;stroke-dasharray:none;stroke-opacity:1"
       d="m 72.364001,165.805 -4.55e-4,11.226"
       id="path4773"
       inkscape:connector-curvature="0"
       sodipodi:nodetypes="cc" />
    <path
       style="fill:none;stroke:#FFFFFF;stroke-width:5;stroke-linecap:round;stroke-linejoin:round;stroke-miterlimit:4;stroke-dasharray:none;stroke-opacity:1"
       d="m 82.98719,167.04019 -9.924189,9.92381 m -1.2,0 -9.823062,-9.82358"
       id="path4775"
       inkscape:connector-curvature="0"
       sodipodi:nodetypes="cccc" />
    <path
       style="fill:none;stroke:#FFFFFF;stroke-width:5.0999999;stroke-linecap:butt;stroke-linejoin:miter;stroke-miterlimit:4;stroke-dasharray:none;stroke-opacity:1"
       d="m 51.863546,269.6 h 41"
       id="path4777"
       inkscape:connector-curvature="0"
       sodipodi:nodetypes="cc" />
    <path
       style="opacity:1;fill:none;fill-opacity:0.23152711;stroke:#FFFFFF;stroke-width:5;stroke-linecap:round;stroke-linejoin:round;stroke-miterlimit:4;stroke-dasharray:none;stroke-opacity:1"
       d="m 85.280879,249.32776 a 4.4884672,4.4884672 0 0 1 -4.488467,4.48847 4.4884672,4.4884672 0 0 1 -4.488467,-4.48847 4.4884672,4.4884672 0 0 1 4.488467,-4.48847 4.4884672,4.4884672 0 0 1 4.488467,4.48847 z"
       id="path4779"
       inkscape:connector-curvature="0" />
    <path
       style="opacity:1;fill:none;fill-opacity:0.23152711;stroke:#FFFFFF;stroke-width:5;stroke-linecap:round;stroke-linejoin:round;stroke-miterlimit:4;stroke-dasharray:none;stroke-opacity:1"
       d="m 68.602679,249.32776 a 4.4884672,4.4884672 0 0 1 -4.488467,4.48847 4.4884672,4.4884672 0 0 1 -4.488467,-4.48847 4.4884672,4.4884672 0 0 1 4.488467,-4.48847 4.4884672,4.4884672 0 0 1 4.488467,4.48847 z"
       id="path4779-7"
       inkscape:connector-curvature="0" />
    <path
       style="opacity:1;fill:none;fill-opacity:0.23152711;stroke:#FFFFFF;stroke-width:5;stroke-linecap:round;stroke-linejoin:round;stroke-miterlimit:4;stroke-dasharray:none;stroke-opacity:1"
       d="m 49.042409,230.85417 c -2e-6,-3.18345 2.580691,-5.76414 5.764137,-5.76414 3.183446,0 5.764139,2.58069 5.764137,5.76414"
       id="path4779-7-5"
       inkscape:connector-curvature="0"
       sodipodi:nodetypes="csc" />
    <path
       style="opacity:1;fill:none;fill-opacity:0.23152711;stroke:#FFFFFF;stroke-width:5;stroke-linecap:round;stroke-linejoin:round;stroke-miterlimit:4;stroke-dasharray:none;stroke-opacity:1"
       d="m 86.613001,230.85417 c -2e-6,-3.18345 2.580691,-5.76414 5.764137,-5.76414 3.183446,0 5.76414,2.58069 5.76414,5.76414"
       id="path4779-7-5-7"
       inkscape:connector-curvature="0"
       sodipodi:nodetypes="csc" />
    <path
       style="fill:none;stroke:#FFFFFF;stroke-width:5;stroke-linecap:round;stroke-linejoin:miter;stroke-miterlimit:4;stroke-dasharray:none;stroke-opacity:1"
       d="m 98.722655,184.96549 0.354354,0.28348"
       id="path4842"
       inkscape:connector-curvature="0"
       sodipodi:nodetypes="cc" />
  </g>
</svg>
